<svg height="477.60001pt" viewBox="0 0 477.60001 477.60001" width="477.60001pt" xmlns="http://www.w3.org/2000/svg"><path d="m477.601562 238.800781c0 131.886719-106.914062 238.800781-238.800781 238.800781s-238.800781-106.914062-238.800781-238.800781 106.914062-238.800781 238.800781-238.800781 238.800781 106.914062 238.800781 238.800781zm0 0" fill="#382b73"/><path d="m445.398438 238.800781c0 114.101563-92.496094 206.597657-206.597657 206.597657-114.101562 0-206.597656-92.496094-206.597656-206.597657 0-114.101562 92.496094-206.597656 206.597656-206.597656 114.101563 0 206.597657 92.496094 206.597657 206.597656zm0 0" fill="#473080"/><path d="m373.132812 143.300781h-59.101562v-37.285156c0-4.316406-3.5-7.816406-7.816406-7.816406h-134.832032c-4.316406 0-7.8125 3.5-7.8125 7.816406v37.285156h-59.105468c-6.625 0-12 5.371094-12 12v166.664063c0 6.628906 5.375 12 12 12h106.085937c-.320312 7.128906-1.492187 14.15625-3.441406 20.964844-.300781 1.042968-.640625 2.078124-.976563 3.109374-.246093.75-.472656 1.503907-.734374 2.246094-.378907 1.070313-.808594 2.125-1.226563 3.183594-.273437.683594-.527344 1.378906-.816406 2.058594-.492188 1.160156-1.039063 2.296875-1.582031 3.4375-.265626.558594-.503907 1.128906-.785157 1.679687-.84375 1.679688-1.734375 3.339844-2.683593 4.972657l-1.753907 3.011718h-29.914062c-3.644531 0-6.789063 2.007813-8.488281 4.957032-.007813-.015626-.019532-.027344-.027344-.039063-.1875.328125-.351563.671875-.503906 1.019531-.011719.03125-.03125.058594-.042969.085938-.21875.519531-.375 1.066406-.503907 1.625-.03125.140625-.058593.277344-.085937.421875-.101563.574219-.175781 1.160156-.175781 1.765625 0 .675781.066406 1.339844.199218 1.980468.132813.640626.324219 1.257813.570313 1.847657 1.492187 3.527343 4.988281 6.003906 9.0625 6.003906h144.324219c4.074218 0 7.566406-2.476563 9.058594-6.003906.25-.589844.441406-1.207031.574218-1.847657.128906-.640624.199219-1.300781.199219-1.980468 0-.605469-.074219-1.191406-.179687-1.765625-.023438-.140625-.050782-.277344-.082032-.417969-.128906-.558594-.289062-1.105469-.507812-1.628906-.011719-.027344-.027344-.050782-.039063-.082032-.152343-.351562-.316406-.695312-.507812-1.023437-.007813.015625-.019531.027344-.027344.042969-1.695313-2.949219-4.84375-4.957032-8.488281-4.957032h-29.914063l-1.753906-3.011718c-.949219-1.632813-1.839844-3.292969-2.683594-4.972656-.28125-.558594-.523437-1.132813-.792969-1.695313-.539062-1.136719-1.085937-2.269531-1.578124-3.421875-.289063-.679688-.539063-1.375-.8125-2.0625-.417969-1.058594-.847657-2.109375-1.226563-3.183594-.265625-.742187-.492187-1.496094-.734375-2.242187-.335938-1.035157-.679688-2.066407-.980469-3.113281-1.949219-6.804688-3.121093-13.835938-3.4375-20.960938h106.082031c6.628907 0 12-5.371094 12-12v-166.667969c0-6.628906-5.371093-12-12-12zm0 0" fill="#382b73"/><path d="m373.132812 319.964844h-268.667968c-6.625 0-12-5.371094-12-12v-158.664063c0-6.628906 5.375-12 12-12h268.667968c6.628907 0 12 5.371094 12 12v158.664063c0 6.628906-5.371093 12-12 12zm0 0" fill="#d1d3d4"/><path d="m373.132812 311.964844h-268.667968c-6.625 0-12-5.371094-12-12v-158.664063c0-6.628906 5.375-12 12-12h268.667968c6.628907 0 12 5.371094 12 12v158.664063c0 6.628906-5.371093 12-12 12zm0 0" fill="#fff"/><path d="m369.800781 299.300781h-262c-2.210937 0-4-1.789062-4-4v-152c0-2.210937 1.789063-4 4-4h262c2.210938 0 4 1.789063 4 4v152c0 2.210938-1.789062 4-4 4zm0 0" fill="#ef5a9d"/><path d="m369.800781 139.300781h-262c-2.210937 0-4 1.792969-4 4v8c0-2.207031 1.789063-4 4-4h262c2.207031 0 4 1.792969 4 4v-8c0-2.210937-1.792969-4-4-4zm0 0" fill="#e43d91"/><path d="m281.050781 364.632812h-84.5l1.753907-3.011718c7.386718-12.691406 11.589843-26.984375 12.246093-41.652344h56.5c.65625 14.667969 4.855469 28.960938 12.246094 41.652344zm0 0" fill="#bcbec0"/><path d="m310.960938 384.300781h-144.324219c-5.429688 0-9.832031-4.402343-9.832031-9.835937 0-5.429688 4.402343-9.832032 9.832031-9.832032h144.324219c5.429687 0 9.835937 4.402344 9.835937 9.832032-.003906 5.433594-4.40625 9.835937-9.835937 9.835937zm0 0" fill="#fff"/><path d="m310.960938 374.464844h-144.324219c-3.640625 0-6.816407-1.976563-8.515625-4.917969-.835938 1.445313-1.316406 3.128906-1.316406 4.917969 0 5.429687 4.402343 9.832031 9.832031 9.832031h144.324219c5.429687 0 9.835937-4.402344 9.835937-9.832031 0-1.789063-.480469-3.46875-1.316406-4.917969-1.703125 2.941406-4.878907 4.917969-8.519531 4.917969zm0 0" fill="#d1d3d4"/><path d="m198.304688 361.621094-1.753907 3.011718h84.5l-1.753906-3.011718c-3.898437-6.695313-6.90625-13.832032-8.980469-21.238282h-63.035156c-2.070312 7.40625-5.082031 14.546876-8.976562 21.238282zm0 0" fill="#e6e7e8"/><path d="m197.429688 250.332031c-.03125-.335937-.078126-.667969-.117188-1.003906-.046875-.382813-.078125-.777344-.136719-1.15625-.003906.039063-.019531.074219-.023437.117187-2.519532-16.554687-16.769532-29.25-34.027344-29.25-17.253906 0-31.507812 12.695313-34.023438 29.25-.007812-.042968-.019531-.078124-.027343-.117187-.058594.378906-.085938.773437-.132813 1.15625-.042968.335937-.085937.667969-.117187 1.003906-.097657 1.042969-.160157 2.09375-.160157 3.15625v.011719c0 9.515625 3.859376 18.132812 10.09375 24.367188.070313.070312.152344.132812.222657.203124 1.304687 1.28125 2.71875 2.445313 4.210937 3.503907 3.597656 2.558593 7.699219 4.441406 12.140625 5.46875.433594.097656.863281.203125 1.300781.285156 2.105469.402344 4.269532.632813 6.492188.632813 9.515625 0 18.132812-3.859376 24.367188-10.09375 6.238281-6.238282 10.097656-14.851563 10.097656-24.371094 0-.003906 0-.003906 0-.007813 0-1.0625-.066406-2.113281-.160156-3.15625zm0 0" fill="#e43d91"/><path d="m273.101562 250.332031c-.03125-.335937-.074218-.667969-.117187-1.003906-.042969-.382813-.074219-.777344-.132813-1.15625-.003906.039063-.015624.074219-.023437.117187-2.519531-16.554687-16.769531-29.25-34.027344-29.25-17.253906 0-31.507812 12.695313-34.023437 29.25-.007813-.042968-.019532-.078124-.023438-.117187-.0625.378906-.089844.773437-.136718 1.15625-.039063.335937-.085938.667969-.113282 1.003906-.097656 1.042969-.160156 2.09375-.160156 3.15625v.011719c0 8.949219 3.4375 17.074219 9.03125 23.203125.746094.8125 1.523438 1.589844 2.34375 2.328125 1 .90625 2.046875 1.757812 3.148438 2.542969 5.632812 4.003906 12.5 6.386719 19.9375 6.386719s14.304687-2.382813 19.933593-6.386719c1.105469-.785157 2.148438-1.636719 3.148438-2.542969.820312-.738281 1.597656-1.515625 2.34375-2.328125 5.59375-6.128906 9.035156-14.253906 9.035156-23.203125 0-.003906 0-.007812 0-.011719-.003906-1.0625-.070313-2.113281-.164063-3.15625zm0 0" fill="#e43d91"/><path d="m348.933594 253.5c0-.003906 0-.007812 0-.011719 0-1.0625-.0625-2.113281-.160156-3.15625-.03125-.335937-.074219-.667969-.117188-1.003906-.042969-.382813-.074219-.777344-.132812-1.15625-.007813.039063-.019532.074219-.027344.117187-2.515625-16.554687-16.769532-29.25-34.023438-29.25-17.257812 0-31.507812 12.695313-34.027344 29.25-.003906-.042968-.015624-.078124-.023437-.117187-.058594.378906-.085937.773437-.132813 1.15625-.042968.335937-.085937.664063-.117187 1.003906-.097656 1.042969-.160156 2.09375-.160156 3.15625v.011719c0 9.515625 3.859375 18.132812 10.09375 24.367188 6.238281 6.238281 14.851562 10.09375 24.367187 10.09375 2.222656 0 4.390625-.230469 6.492188-.628907.4375-.085937.871094-.1875 1.304687-.289062 4.4375-1.027344 8.542969-2.90625 12.140625-5.46875 1.492188-1.058594 2.90625-2.222657 4.207032-3.503907.074218-.066406.152343-.128906.222656-.199218 6.234375-6.238282 10.09375-14.855469 10.09375-24.371094zm0 0" fill="#e43d91"/><path d="m197.589844 243.5c0 19.03125-15.429688 34.460938-34.460938 34.460938-19.035156 0-34.464844-15.429688-34.464844-34.460938s15.429688-34.460938 34.464844-34.460938c19.03125 0 34.460938 15.429688 34.460938 34.460938zm0 0" fill="#1caee4"/><path d="m163.128906 267.304688c-17.222656 0-31.488281-12.628907-34.050781-29.132813-.269531 1.738281-.414063 3.515625-.414063 5.332031 0 19.03125 15.429688 34.460938 34.464844 34.460938 19.03125 0 34.460938-15.429688 34.460938-34.460938 0-1.8125-.140625-3.59375-.410156-5.332031-2.566407 16.5-16.832032 29.132813-34.050782 29.132813zm0 0" fill="#009add"/><path d="m155.132812 234.53125c0 2.402344-1.945312 4.351562-4.351562 4.351562-2.402344 0-4.351562-1.949218-4.351562-4.351562 0-2.40625 1.949218-4.351562 4.351562-4.351562 2.40625 0 4.351562 1.945312 4.351562 4.351562zm0 0" fill="#136da0"/><path d="m179.824219 234.53125c0 2.402344-1.949219 4.351562-4.351563 4.351562-2.40625 0-4.351562-1.949218-4.351562-4.351562 0-2.40625 1.945312-4.351562 4.351562-4.351562 2.402344 0 4.351563 1.945312 4.351563 4.351562zm0 0" fill="#136da0"/><path d="m163.128906 264.023438c-6.851562 0-13.292968-2.667969-18.148437-7.519532-1.746094-1.75-1.746094-4.585937 0-6.332031 1.75-1.75 4.585937-1.75 6.335937 0 6.511719 6.511719 17.113282 6.511719 23.625 0 1.75-1.75 4.582032-1.75 6.332032 0 1.75 1.746094 1.75 4.582031 0 6.332031-4.851563 4.851563-11.296876 7.519532-18.144532 7.519532zm0 0" fill="#136da0"/><path d="m273.261719 243.5c0 19.03125-15.429688 34.460938-34.460938 34.460938-19.035156 0-34.460937-15.429688-34.460937-34.460938s15.425781-34.460938 34.460937-34.460938c19.03125 0 34.460938 15.429688 34.460938 34.460938zm0 0" fill="#1caee4"/><path d="m238.800781 267.304688c-17.222656 0-31.488281-12.628907-34.050781-29.132813-.269531 1.738281-.410156 3.515625-.410156 5.332031 0 19.03125 15.425781 34.460938 34.460937 34.460938 19.03125 0 34.460938-15.429688 34.460938-34.460938 0-1.8125-.140625-3.59375-.410157-5.332031-2.5625 16.5-16.832031 29.132813-34.050781 29.132813zm0 0" fill="#009add"/><path d="m230.804688 234.53125c0 2.402344-1.945313 4.351562-4.351563 4.351562-2.402344 0-4.351563-1.949218-4.351563-4.351562 0-2.40625 1.949219-4.351562 4.351563-4.351562 2.40625 0 4.351563 1.945312 4.351563 4.351562zm0 0" fill="#136da0"/><path d="m255.496094 234.53125c0 2.402344-1.945313 4.351562-4.351563 4.351562-2.402343 0-4.351562-1.949218-4.351562-4.351562 0-2.40625 1.949219-4.351562 4.351562-4.351562 2.40625 0 4.351563 1.945312 4.351563 4.351562zm0 0" fill="#136da0"/><path d="m238.800781 264.023438c-6.851562 0-13.296875-2.667969-18.148437-7.519532-1.746094-1.75-1.746094-4.585937 0-6.332031 1.75-1.75 4.585937-1.75 6.335937 0 6.511719 6.511719 17.113281 6.511719 23.625 0 1.75-1.75 4.582031-1.75 6.332031 0 1.75 1.746094 1.75 4.582031 0 6.332031-4.851562 4.851563-11.296874 7.519532-18.144531 7.519532zm0 0" fill="#136da0"/><path d="m348.933594 243.5c0 19.03125-15.429688 34.460938-34.460938 34.460938-19.035156 0-34.460937-15.429688-34.460937-34.460938s15.425781-34.460938 34.460937-34.460938c19.03125 0 34.460938 15.429688 34.460938 34.460938zm0 0" fill="#1caee4"/><path d="m314.472656 267.304688c-17.21875 0-31.488281-12.628907-34.050781-29.132813-.269531 1.738281-.410156 3.515625-.410156 5.332031 0 19.03125 15.425781 34.460938 34.460937 34.460938s34.460938-15.429688 34.460938-34.460938c0-1.8125-.140625-3.59375-.410156-5.332031-2.5625 16.5-16.832032 29.132813-34.050782 29.132813zm0 0" fill="#009add"/><path d="m306.480469 234.53125c0 2.402344-1.949219 4.351562-4.351563 4.351562-2.40625 0-4.351562-1.949218-4.351562-4.351562 0-2.40625 1.945312-4.351562 4.351562-4.351562 2.402344 0 4.351563 1.945312 4.351563 4.351562zm0 0" fill="#136da0"/><path d="m331.171875 234.53125c0 2.402344-1.949219 4.351562-4.355469 4.351562-2.402344 0-4.351562-1.949218-4.351562-4.351562 0-2.40625 1.949218-4.351562 4.351562-4.351562 2.40625 0 4.355469 1.945312 4.355469 4.351562zm0 0" fill="#136da0"/><path d="m314.472656 264.023438c-6.851562 0-13.292968-2.667969-18.148437-7.519532-1.746094-1.75-1.746094-4.585937 0-6.332031 1.75-1.75 4.585937-1.75 6.335937 0 6.511719 6.511719 17.113282 6.511719 23.625 0 1.75-1.75 4.582032-1.75 6.332032 0 1.75 1.746094 1.75 4.582031 0 6.332031-4.847657 4.851563-11.292969 7.519532-18.144532 7.519532zm0 0" fill="#136da0"/><path d="m163.570312 126.316406v68.667969c0 4.316406 3.496094 7.816406 7.8125 7.816406h134.832032c4.316406 0 7.8125-3.5 7.8125-7.816406v-68.667969zm0 0" fill="#e43d91"/><path d="m306.214844 191.515625h-67.433594v-100.144531h67.433594c4.316406 0 7.816406 3.5 7.816406 7.816406v84.515625c0 4.316406-3.5 7.8125-7.816406 7.8125zm0 0" fill="#d1d3d4"/><path d="m306.214844 184.347656h-67.433594v-100.144531h67.433594c4.316406 0 7.816406 3.496094 7.816406 7.8125v84.519531c0 4.3125-3.5 7.8125-7.816406 7.8125zm0 0" fill="#fff"/><g fill="#d1d3d4"><path d="m297.785156 137.695312h-42.621094c-2.355468 0-4.261718-1.648437-4.261718-3.679687 0-2.035156 1.90625-3.683594 4.261718-3.683594h42.621094c2.355469 0 4.261719 1.648438 4.261719 3.683594 0 2.03125-1.90625 3.679687-4.261719 3.679687zm0 0"/><path d="m297.785156 154.710938h-42.621094c-2.355468 0-4.261718-1.648438-4.261718-3.679688 0-2.035156 1.90625-3.683594 4.261718-3.683594h42.621094c2.355469 0 4.261719 1.648438 4.261719 3.683594 0 2.03125-1.90625 3.679688-4.261719 3.679688zm0 0"/><path d="m297.785156 106.601562h-42.621094c-2.355468 0-4.261718-1.648437-4.261718-3.679687 0-2.035156 1.90625-3.683594 4.261718-3.683594h42.621094c2.355469 0 4.261719 1.648438 4.261719 3.683594 0 2.03125-1.90625 3.679687-4.261719 3.679687zm0 0"/><path d="m297.785156 171.726562h-42.621094c-2.355468 0-4.261718-1.648437-4.261718-3.683593 0-2.03125 1.90625-3.679688 4.261718-3.679688h42.621094c2.355469 0 4.261719 1.648438 4.261719 3.679688 0 2.035156-1.90625 3.683593-4.261719 3.683593zm0 0"/></g><path d="m171.382812 191.515625h67.4375v-100.144531h-67.4375c-4.316406 0-7.8125 3.5-7.8125 7.816406v84.515625c0 4.316406 3.496094 7.8125 7.8125 7.8125zm0 0" fill="#bcbec0"/><path d="m171.382812 184.347656h67.4375v-100.144531h-67.4375c-4.316406 0-7.8125 3.496094-7.8125 7.8125v84.519531c0 4.3125 3.496094 7.8125 7.8125 7.8125zm0 0" fill="#e6e7e8"/><path d="m179.8125 137.695312h42.625c2.351562 0 4.261719-1.648437 4.261719-3.679687 0-2.035156-1.910157-3.683594-4.261719-3.683594h-42.625c-2.351562 0-4.261719 1.648438-4.261719 3.683594 0 2.03125 1.910157 3.679687 4.261719 3.679687zm0 0" fill="#bcbec0"/><path d="m179.8125 154.710938h42.625c2.351562 0 4.261719-1.648438 4.261719-3.679688 0-2.035156-1.910157-3.683594-4.261719-3.683594h-42.625c-2.351562 0-4.261719 1.648438-4.261719 3.683594 0 2.03125 1.910157 3.679688 4.261719 3.679688zm0 0" fill="#bcbec0"/><path d="m179.8125 171.726562h42.625c2.351562 0 4.261719-1.648437 4.261719-3.683593 0-2.03125-1.910157-3.679688-4.261719-3.679688h-42.625c-2.351562 0-4.261719 1.648438-4.261719 3.679688 0 2.035156 1.910157 3.683593 4.261719 3.683593zm0 0" fill="#bcbec0"/><path d="m178.675781 95.792969h44.894531c1.726563 0 3.128907 1.398437 3.128907 3.125v15.367187c0 1.726563-1.402344 3.125-3.128907 3.125h-44.894531c-1.726562 0-3.125-1.398437-3.125-3.125v-15.367187c0-1.726563 1.398438-3.125 3.125-3.125zm0 0" fill="#bcbec0"/></svg>